<?xml version="1.0" encoding="UTF-8" standalone="no" ?>
<!DOCTYPE svg PUBLIC "-//W3C//DTD SVG 1.1//EN" "http://www.w3.org/Graphics/SVG/1.1/DTD/svg11.dtd">
<svg xmlns="http://www.w3.org/2000/svg" xmlns:xlink="http://www.w3.org/1999/xlink" version="1.1" width="18" height="18" viewBox="0 0 256 256" xml:space="preserve">
<desc>Created with Fabric.js 4.6.0</desc>
<defs>
</defs>
<g transform="matrix(1 0 0 1 130.08 125.21)" id="8Ro1UasmTG-zPlcDN5Gvm"  >
<path style="stroke: rgb(0,0,0); stroke-width: 0; stroke-dasharray: none; stroke-linecap: butt; stroke-dashoffset: 0; stroke-linejoin: miter; stroke-miterlimit: 4; fill: rgb(36,176,85); fill-rule: nonzero; opacity: 1;" vector-effect="non-scaling-stroke"  transform=" translate(0, 0)" d="M 29.92163 87.43399 L 52.588300000000004 91.96118999999999 L 46.92163000000001 24.29451999999999 L -6.711569999999995 11.771349999999991 L -6.711569999999995 8.682549999999992 L 87.04378000000001 -14.483470000000008 L 80.48007000000001 104.75595999999999 L 49.92164000000001 104.85120999999998 L 16.19474000000001 102.28694999999998 L -11.432849999999991 97.10429999999998 L -33.79383999999999 89.15347999999997 L -33.79383999999999 89.15347999999997 C -38.18886999999999 87.59074999999997 -42.43490999999999 85.63705999999998 -46.48094999999999 83.31585999999997 L -52.99132999999999 79.58086999999998 L -52.99132999999999 79.58086999999998 C -74.70414 67.12428999999997 -87.78407999999999 43.71484999999998 -87.01131999999998 18.69454999999998 C -86.68674999999999 8.185509999999978 -85.76714999999999 -7.161600000000021 -84.71693999999998 -13.083490000000022 C -82.32670999999998 -26.56149000000002 -78.79719999999998 -38.48350000000002 -77.35305999999999 -41.535540000000026 C -77.35305999999999 -41.535540000000026 -73.28248999999998 -50.125770000000024 -71.27757999999999 -54.35678000000003 L -71.27757999999999 -54.35678000000003 C -62.179549999999985 -73.55660000000003 -46.48719999999999 -88.84935000000003 -27.059139999999985 -97.44922000000003 L -23.420959999999987 -99.05967000000003 L -23.420959999999987 -99.05967000000003 C -16.782269999999986 -101.99830000000003 -9.670629999999987 -103.72329000000002 -2.4233399999999854 -104.15283000000002 L 5.279450000000015 -104.60937000000003 L 5.279450000000015 -104.60937000000003 C 25.982470000000013 -105.83642000000003 46.69593000000002 -102.38343000000003 65.88136000000002 -94.50689000000003 L 80.38150000000002 -88.55389000000002 L 66.03875000000002 -46.809020000000025 L 48.88286000000002 -61.404900000000026 L 48.88286000000002 -61.404900000000026 C 38.91231000000002 -69.88764000000003 27.122120000000024 -75.96021000000003 14.42635000000002 -79.15181000000003 L 9.08233000000002 -80.49525000000003 L 1.66459000000002 -81.37419000000003 L 1.66459000000002 -81.37419000000003 C -5.32679999999998 -82.20262000000002 -12.35788999999998 -80.18744000000002 -17.84903999999998 -75.78140000000003 L -21.915549999999982 -72.51848000000004 L -28.395359999999982 -63.62827000000004 L -28.395359999999982 -63.62827000000004 C -39.20587999999998 -48.79638000000004 -45.38619999999998 -31.097420000000042 -46.158079999999984 -12.760120000000043 L -47.00311999999998 7.315279999999955 L -47.007269999999984 8.148669999999955 L -47.007269999999984 8.148669999999955 C -47.163949999999986 39.610689999999956 -27.268359999999984 67.67961999999996 2.4699500000000185 77.95171999999995 z" stroke-linecap="round" />
</g>
</svg>